# xmcd CD database file
#
# Track frame offsets:
#	150
#	15642
#	31197
#	49450
#	64602
#	85232
#	99117
#	118712
#	134517
#	153317
#	172415
#	189030
#	207402
#	223047
#	242667
#	262230
#	282202
#	297910
#	324805
#
# Disc length: 4795 seconds
#
# Revision: 0
# Processed by: cddbd v1.5.1PL0 Copyright (c) Steve Scherf et al.
# Submitted via: CDex 1.51
#
DISCID=1512b913
DTITLE=神話 (Shinhwa) - best of shinhwa 2001-2003
DYEAR=2003
DGENRE=Pop
TTITLE0=PERFECT MAN
TTITLE1=WEDDING〜君と出逢ったとき〜
TTITLE2=I PRAY 4 U REMIX
TTITLE3=WILD EYES
TTITLE4=DEEP SORROW
TTITLE5=HERO
TTITLE6=JUST 2 BE WITH U
TTITLE7=SHOUT
TTITLE8=FALLING IN LOVE
TTITLE9=HIWAY (Ride with me)
TTITLE10=MY LIFE STYLE
TTITLE11=LOST IN LOVE
TTITLE12=HEY,COME ON!
TTITLE13=GONNA BE ALRIGHT
TTITLE14=FREE
TTITLE15=SHINING GOOD-DOG LIFE 9(HYESUNG,ERIC&HUH IN CHANG)
TTITLE16=HEY,COME ON! 2003 (featurimg Rap by Andy)
TTITLE17=WEDDING〜君と出逢ったとき〜 (Korean／Japanese Complete Ver.)
TTITLE18=PLAYER
EXTD=YEAR: 2003/09/18
EXTT0=
EXTT1=
EXTT2=
EXTT3=
EXTT4=
EXTT5=
EXTT6=
EXTT7=
EXTT8=
EXTT9=
EXTT10=
EXTT11=
EXTT12=
EXTT13=
EXTT14=
EXTT15=
EXTT16=
EXTT17=
EXTT18=
PLAYORDER=
